<mxfile host="app.diagrams.net" agent="Mozilla/5.0 (Windows NT 10.0; Win64; x64) AppleWebKit/537.36 (KHTML, like Gecko) Chrome/134.0.0.0 Safari/537.36 Edg/134.0.0.0" version="26.1.0">
  <diagram id="VfyEq9Tr5WV76RI0XPTD" name="Page-1">
    <mxGraphModel dx="1173" dy="698" grid="1" gridSize="10" guides="1" tooltips="1" connect="1" arrows="1" fold="1" page="1" pageScale="1" pageWidth="850" pageHeight="1100" math="0" shadow="0">
      <root>
        <mxCell id="0" />
        <mxCell id="1" parent="0" />
        <mxCell id="2" value="SiMS" style="shape=folder;fontStyle=1;tabWidth=110;tabHeight=30;tabPosition=left;html=1;boundedLbl=1;labelInHeader=1;container=1;collapsible=0;" vertex="1" parent="1">
          <mxGeometry x="40" width="680" height="600" as="geometry" />
        </mxCell>
        <mxCell id="w0ooNjBqkEknqmhdiJ6c-16" value="Models" style="shape=folder;fontStyle=1;tabWidth=110;tabHeight=30;tabPosition=left;html=1;boundedLbl=1;labelInHeader=1;container=1;collapsible=0;whiteSpace=wrap;" vertex="1" parent="2">
          <mxGeometry x="24.29" y="50" width="305.71" height="220" as="geometry" />
        </mxCell>
        <mxCell id="w0ooNjBqkEknqmhdiJ6c-17" value="" style="html=1;strokeColor=none;resizeWidth=1;resizeHeight=1;fillColor=none;part=1;connectable=0;allowArrows=0;deletable=0;whiteSpace=wrap;" vertex="1" parent="w0ooNjBqkEknqmhdiJ6c-16">
          <mxGeometry width="305.71" height="153.99999999999997" relative="1" as="geometry">
            <mxPoint y="30" as="offset" />
          </mxGeometry>
        </mxCell>
        <mxCell id="w0ooNjBqkEknqmhdiJ6c-24" value="User" style="shape=folder;fontStyle=1;spacingTop=10;tabWidth=40;tabHeight=14;tabPosition=left;html=1;whiteSpace=wrap;" vertex="1" parent="w0ooNjBqkEknqmhdiJ6c-16">
          <mxGeometry x="15.709999999999999" y="50" width="83.91" height="62.31" as="geometry" />
        </mxCell>
        <mxCell id="w0ooNjBqkEknqmhdiJ6c-25" value="Students" style="shape=folder;fontStyle=1;spacingTop=10;tabWidth=40;tabHeight=14;tabPosition=left;html=1;whiteSpace=wrap;" vertex="1" parent="w0ooNjBqkEknqmhdiJ6c-16">
          <mxGeometry x="195.71" y="50" width="83.91" height="62.31" as="geometry" />
        </mxCell>
        <mxCell id="w0ooNjBqkEknqmhdiJ6c-26" value="Faculty" style="shape=folder;fontStyle=1;spacingTop=10;tabWidth=40;tabHeight=14;tabPosition=left;html=1;whiteSpace=wrap;" vertex="1" parent="w0ooNjBqkEknqmhdiJ6c-16">
          <mxGeometry x="105.70894736842106" y="54.613846153846126" width="81.05263157894737" height="57.692307692307686" as="geometry" />
        </mxCell>
        <mxCell id="w0ooNjBqkEknqmhdiJ6c-27" value="Admin" style="shape=folder;fontStyle=1;spacingTop=10;tabWidth=40;tabHeight=14;tabPosition=left;html=1;whiteSpace=wrap;" vertex="1" parent="w0ooNjBqkEknqmhdiJ6c-16">
          <mxGeometry x="45.708947368421065" y="130.00384615384613" width="81.05263157894737" height="57.692307692307686" as="geometry" />
        </mxCell>
        <mxCell id="w0ooNjBqkEknqmhdiJ6c-29" value="Course" style="shape=folder;fontStyle=1;spacingTop=10;tabWidth=40;tabHeight=14;tabPosition=left;html=1;whiteSpace=wrap;" vertex="1" parent="w0ooNjBqkEknqmhdiJ6c-16">
          <mxGeometry x="167.28894736842105" y="140.00384615384613" width="81.05263157894737" height="57.692307692307686" as="geometry" />
        </mxCell>
        <mxCell id="w0ooNjBqkEknqmhdiJ6c-22" value="Controllers" style="shape=folder;fontStyle=1;tabWidth=110;tabHeight=30;tabPosition=left;html=1;boundedLbl=1;labelInHeader=1;container=1;collapsible=0;whiteSpace=wrap;" vertex="1" parent="2">
          <mxGeometry x="388.57142857142856" y="369.23076923076917" width="254.99999999999997" height="184.61538461538458" as="geometry" />
        </mxCell>
        <mxCell id="w0ooNjBqkEknqmhdiJ6c-23" value="Text" style="html=1;strokeColor=none;resizeWidth=1;resizeHeight=1;fillColor=none;part=1;connectable=0;allowArrows=0;deletable=0;whiteSpace=wrap;" vertex="1" parent="w0ooNjBqkEknqmhdiJ6c-22">
          <mxGeometry width="254.99999999999997" height="129.23076923076923" relative="1" as="geometry">
            <mxPoint y="30" as="offset" />
          </mxGeometry>
        </mxCell>
        <mxCell id="w0ooNjBqkEknqmhdiJ6c-20" value="Services" style="shape=folder;fontStyle=1;tabWidth=110;tabHeight=30;tabPosition=left;html=1;boundedLbl=1;labelInHeader=1;container=1;collapsible=0;whiteSpace=wrap;" vertex="1" parent="2">
          <mxGeometry x="48.57142857142857" y="346.15384615384613" width="242.85714285714283" height="161.53846153846152" as="geometry" />
        </mxCell>
        <mxCell id="w0ooNjBqkEknqmhdiJ6c-21" value="Text" style="html=1;strokeColor=none;resizeWidth=1;resizeHeight=1;fillColor=none;part=1;connectable=0;allowArrows=0;deletable=0;whiteSpace=wrap;" vertex="1" parent="w0ooNjBqkEknqmhdiJ6c-20">
          <mxGeometry width="242.85714285714283" height="113.07692307692307" relative="1" as="geometry">
            <mxPoint y="30" as="offset" />
          </mxGeometry>
        </mxCell>
        <mxCell id="w0ooNjBqkEknqmhdiJ6c-18" value="Repositories" style="shape=folder;fontStyle=1;tabWidth=110;tabHeight=30;tabPosition=left;html=1;boundedLbl=1;labelInHeader=1;container=1;collapsible=0;whiteSpace=wrap;" vertex="1" parent="2">
          <mxGeometry x="360" y="80" width="295.71" height="208.46" as="geometry" />
        </mxCell>
        <mxCell id="w0ooNjBqkEknqmhdiJ6c-19" value="" style="html=1;strokeColor=none;resizeWidth=1;resizeHeight=1;fillColor=none;part=1;connectable=0;allowArrows=0;deletable=0;whiteSpace=wrap;" vertex="1" parent="w0ooNjBqkEknqmhdiJ6c-18">
          <mxGeometry width="295.71" height="145.922" relative="1" as="geometry">
            <mxPoint y="30" as="offset" />
          </mxGeometry>
        </mxCell>
        <mxCell id="w0ooNjBqkEknqmhdiJ6c-30" value="User repos" style="shape=folder;fontStyle=1;spacingTop=10;tabWidth=40;tabHeight=14;tabPosition=left;html=1;whiteSpace=wrap;" vertex="1" parent="w0ooNjBqkEknqmhdiJ6c-18">
          <mxGeometry x="25" y="40" width="100" height="64.41" as="geometry" />
        </mxCell>
        <mxCell id="w0ooNjBqkEknqmhdiJ6c-31" value="Students repos" style="shape=folder;fontStyle=1;spacingTop=10;tabWidth=40;tabHeight=14;tabPosition=left;html=1;whiteSpace=wrap;" vertex="1" parent="w0ooNjBqkEknqmhdiJ6c-18">
          <mxGeometry x="180" y="40" width="95.19" height="64.41" as="geometry" />
        </mxCell>
        <mxCell id="w0ooNjBqkEknqmhdiJ6c-32" value="Admin repos" style="shape=folder;fontStyle=1;spacingTop=10;tabWidth=40;tabHeight=14;tabPosition=left;html=1;whiteSpace=wrap;" vertex="1" parent="w0ooNjBqkEknqmhdiJ6c-18">
          <mxGeometry x="25" y="120" width="105" height="57.69" as="geometry" />
        </mxCell>
      </root>
    </mxGraphModel>
  </diagram>
</mxfile>
